<?xml version="1.0" encoding="utf-8"?>
<!-- Generator: Adobe Illustrator 16.0.0, SVG Export Plug-In . SVG Version: 6.00 Build 0)  -->
<!DOCTYPE svg PUBLIC "-//W3C//DTD SVG 1.1//EN" "http://www.w3.org/Graphics/SVG/1.1/DTD/svg11.dtd">
<svg version="1.1" id="Layer_1" xmlns="http://www.w3.org/2000/svg" xmlns:xlink="http://www.w3.org/1999/xlink" x="0px" y="0px"
	 width="32px" height="32px" viewBox="0 0 32 32" enable-background="new 0 0 32 32" xml:space="preserve">
<g>
	<g>
		<rect x="11" y="7" fill="#9B3393" width="9" height="9"/>
		<path d="M21,16H11V6h10V16z M12,15h8V7h-8V15z"/>
	</g>
	<polygon fill="#CA42BF" points="20,15 19,15 19,8 12,8 12,7 20,7 	"/>
	<polygon fill="#4E1A4A" points="20,15 12,15 12,8 13,8 13,14 20,14 	"/>
</g>
<g>
	<g>
		<rect x="1" y="7" fill="#9B3393" width="9" height="9"/>
		<path d="M11,16H1V6h10V16z M2,15h8V7H2V15z"/>
	</g>
	<polygon fill="#CA42BF" points="10,15 9,15 9,8 2,8 2,7 10,7 	"/>
	<polygon fill="#4E1A4A" points="10,15 2,15 2,8 3,8 3,14 10,14 	"/>
</g>
<g>
	<g>
		<rect x="21" y="7" fill="#9B3393" width="9" height="9"/>
		<path d="M31,16H21V6h10V16z M22,15h8V7h-8V15z"/>
	</g>
	<polygon fill="#CA42BF" points="30,15 29,15 29,8 22,8 22,7 30,7 	"/>
	<polygon fill="#4E1A4A" points="30,15 22,15 22,8 23,8 23,14 30,14 	"/>
</g>
<g>
	<g>
		<rect x="11" y="17" fill="#9B3393" width="9" height="9"/>
		<path d="M21,26H11V16h10V26z M12,25h8v-8h-8V25z"/>
	</g>
	<polygon fill="#CA42BF" points="20,25 19,25 19,18 12,18 12,17 20,17 	"/>
	<polygon fill="#4E1A4A" points="20,25 12,25 12,18 13,18 13,24 20,24 	"/>
</g>
</svg>
